<svg width="62" height="63" viewBox="0 0 62 63" fill="none" xmlns="http://www.w3.org/2000/svg">
<path d="M60.5218 32.1985C60.5218 29.9502 60.3225 27.7979 59.9438 25.7354H31V37.5986H47.668C46.9874 41.5378 44.8109 44.8877 41.4785 47.1296V54.8162H51.4045C57.2021 49.4612 60.5218 41.5505 60.5218 32.1985Z" fill="#4285F4"/>
<path d="M31.0002 62.2461C39.3276 62.2461 46.3197 59.5174 51.4047 54.8095L41.4787 47.1228C38.7177 48.9803 35.1606 50.0696 31.0002 50.0696C22.9617 50.0696 16.143 44.6634 13.6968 37.3804H3.4624V45.3038C8.53468 55.3541 18.9552 62.2461 31.0002 62.2461Z" fill="#34A853"/>
<path d="M13.6965 37.3869C13.0736 35.5294 12.7333 33.5497 12.7333 31.5001C12.7333 29.4504 13.0736 27.4775 13.6965 25.6135V17.6963H3.46204C1.36899 21.8471 0.181152 26.5359 0.181152 31.5001C0.181152 36.4645 1.36899 41.1532 3.46204 45.3038L13.6965 37.3869Z" fill="#FBBC05"/>
<path d="M31.0002 12.9239C35.5393 12.9239 39.6102 14.4868 42.8267 17.5358V17.5422L51.6233 8.7667C46.2811 3.80242 39.3149 0.753418 31.0002 0.753418C18.9552 0.753418 8.53468 7.6457 3.4624 17.696L13.6968 25.6196C16.143 18.3301 22.9617 12.9239 31.0002 12.9239Z" fill="#EA4335"/>
</svg>
